<svg width="1440" height="286" viewBox="0 0 1440 286" fill="none" xmlns="http://www.w3.org/2000/svg">
<rect width="1440" height="286" fill="url(#paint0_linear)"/>
<g style="mix-blend-mode:overlay">
<path d="M84.6066 41.1421L72.2322 28.7678C71.2559 27.7915 71.2559 26.2085 72.2322 25.2322C73.2085 24.2559 74.7915 24.2559 75.7678 25.2322L89.9099 39.3744C90.8862 40.3507 90.8862 41.9336 89.9099 42.9099L75.7678 57.052C74.7915 58.0283 73.2085 58.0283 72.2322 57.052C71.2559 56.0757 71.2559 54.4928 72.2322 53.5165L84.6066 41.1421ZM94 52H114C115.381 52 116.5 53.1193 116.5 54.5C116.5 55.8807 115.381 57 114 57H94C92.6193 57 91.5 55.8807 91.5 54.5C91.5 53.1193 92.6193 52 94 52Z" fill="white" fill-opacity="0.5"/>
<path d="M232.607 209.142L220.232 196.768C219.256 195.791 219.256 194.209 220.232 193.232C221.209 192.256 222.791 192.256 223.768 193.232L237.91 207.374C238.886 208.351 238.886 209.934 237.91 210.91L223.768 225.052C222.791 226.028 221.209 226.028 220.232 225.052C219.256 224.076 219.256 222.493 220.232 221.517L232.607 209.142ZM242 220H262C263.381 220 264.5 221.119 264.5 222.5C264.5 223.881 263.381 225 262 225H242C240.619 225 239.5 223.881 239.5 222.5C239.5 221.119 240.619 220 242 220Z" fill="white" fill-opacity="0.5"/>
<path d="M273.84 32.1599C275.138 32.6584 275.807 34.1729 275.335 35.5425L263.364 70.2628C262.892 71.6324 261.457 72.3386 260.16 71.8401C258.862 71.3416 258.193 69.8271 258.665 68.4575L270.636 33.7372C271.108 32.3676 272.543 31.6614 273.84 32.1599ZM248.036 52.6404L256.874 61.9713C257.851 63.0019 257.851 64.673 256.874 65.7036C255.898 66.7343 254.315 66.7343 253.339 65.7036L242.732 54.5066C241.756 53.4759 241.756 51.8049 242.732 50.7742L253.339 39.5771C254.315 38.5465 255.898 38.5465 256.874 39.5771C257.851 40.6078 257.851 42.2788 256.874 43.3095L248.036 52.6404ZM285.964 52.6404L277.126 43.3095C276.149 42.2788 276.149 40.6078 277.126 39.5771C278.102 38.5465 279.685 38.5465 280.661 39.5771L291.268 50.7742C292.244 51.8049 292.244 53.4759 291.268 54.5066L280.661 65.7036C279.685 66.7343 278.102 66.7343 277.126 65.7036C276.149 64.673 276.149 63.0019 277.126 61.9713L285.964 52.6404Z" fill="white" fill-opacity="0.5"/>
<path d="M85.8404 197.16C87.1378 197.658 87.8068 199.173 87.3346 200.543L75.3639 235.263C74.8916 236.632 73.457 237.339 72.1596 236.84C70.8622 236.342 70.1932 234.827 70.6654 233.457L82.6361 198.737C83.1084 197.368 84.543 196.661 85.8404 197.16ZM60.0355 217.64L68.8744 226.971C69.8507 228.002 69.8507 229.673 68.8744 230.704C67.8981 231.734 66.3151 231.734 65.3388 230.704L54.7322 219.507C53.7559 218.476 53.7559 216.805 54.7322 215.774L65.3388 204.577C66.3151 203.546 67.8981 203.546 68.8744 204.577C69.8507 205.608 69.8507 207.279 68.8744 208.309L60.0355 217.64ZM97.9645 217.64L89.1256 208.309C88.1493 207.279 88.1493 205.608 89.1256 204.577C90.1019 203.546 91.6849 203.546 92.6612 204.577L103.268 215.774C104.244 216.805 104.244 218.476 103.268 219.507L92.6612 230.704C91.6849 231.734 90.1019 231.734 89.1256 230.704C88.1493 229.673 88.1493 228.002 89.1256 226.971L97.9645 217.64Z" fill="white" fill-opacity="0.5"/>
<path d="M503.84 20.1599C505.138 20.6584 505.807 22.1729 505.335 23.5425L493.364 58.2628C492.892 59.6324 491.457 60.3386 490.16 59.8401C488.862 59.3416 488.193 57.8271 488.665 56.4575L500.636 21.7372C501.108 20.3676 502.543 19.6614 503.84 20.1599ZM478.036 40.6404L486.874 49.9713C487.851 51.0019 487.851 52.673 486.874 53.7036C485.898 54.7343 484.315 54.7343 483.339 53.7036L472.732 42.5066C471.756 41.4759 471.756 39.8049 472.732 38.7742L483.339 27.5771C484.315 26.5465 485.898 26.5465 486.874 27.5771C487.851 28.6078 487.851 30.2788 486.874 31.3095L478.036 40.6404ZM515.964 40.6404L507.126 31.3095C506.149 30.2788 506.149 28.6078 507.126 27.5771C508.102 26.5465 509.685 26.5465 510.661 27.5771L521.268 38.7742C522.244 39.8049 522.244 41.4759 521.268 42.5066L510.661 53.7036C509.685 54.7343 508.102 54.7343 507.126 53.7036C506.149 52.673 506.149 51.0019 507.126 49.9713L515.964 40.6404Z" fill="white" fill-opacity="0.5"/>
<path d="M171.5 114.5H206.5C208.489 114.5 210.397 115.29 211.803 116.697C213.21 118.103 214 120.011 214 122V142C214 143.989 213.21 145.897 211.803 147.303C210.397 148.71 208.489 149.5 206.5 149.5H171.5C169.511 149.5 167.603 148.71 166.197 147.303C164.79 145.897 164 143.989 164 142V122C164 120.011 164.79 118.103 166.197 116.697C167.603 115.29 169.511 114.5 171.5 114.5V114.5ZM171.5 119.5C170.837 119.5 170.201 119.763 169.732 120.232C169.263 120.701 169 121.337 169 122V142C169 142.663 169.263 143.299 169.732 143.768C170.201 144.237 170.837 144.5 171.5 144.5H206.5C207.163 144.5 207.799 144.237 208.268 143.768C208.737 143.299 209 142.663 209 142V122C209 121.337 208.737 120.701 208.268 120.232C207.799 119.763 207.163 119.5 206.5 119.5H171.5ZM171.5 129.5H176.5V134.5H171.5V129.5ZM171.5 122H176.5V127H171.5V122ZM171.5 137H176.5V142H171.5V137ZM179 137H199V142H179V137ZM179 129.5H184V134.5H179V129.5ZM179 122H184V127H179V122ZM186.5 129.5H191.5V134.5H186.5V129.5ZM186.5 122H191.5V127H186.5V122ZM201.5 137H206.5V142H201.5V137ZM194 129.5H199V134.5H194V129.5ZM194 122H199V127H194V122ZM201.5 122H206.5V134.5H201.5V122Z" fill="white" fill-opacity="0.5"/>
<path d="M322.5 221.5H357.5C359.489 221.5 361.397 222.29 362.803 223.697C364.21 225.103 365 227.011 365 229V249C365 250.989 364.21 252.897 362.803 254.303C361.397 255.71 359.489 256.5 357.5 256.5H322.5C320.511 256.5 318.603 255.71 317.197 254.303C315.79 252.897 315 250.989 315 249V229C315 227.011 315.79 225.103 317.197 223.697C318.603 222.29 320.511 221.5 322.5 221.5V221.5ZM322.5 226.5C321.837 226.5 321.201 226.763 320.732 227.232C320.263 227.701 320 228.337 320 229V249C320 249.663 320.263 250.299 320.732 250.768C321.201 251.237 321.837 251.5 322.5 251.5H357.5C358.163 251.5 358.799 251.237 359.268 250.768C359.737 250.299 360 249.663 360 249V229C360 228.337 359.737 227.701 359.268 227.232C358.799 226.763 358.163 226.5 357.5 226.5H322.5ZM322.5 236.5H327.5V241.5H322.5V236.5ZM322.5 229H327.5V234H322.5V229ZM322.5 244H327.5V249H322.5V244ZM330 244H350V249H330V244ZM330 236.5H335V241.5H330V236.5ZM330 229H335V234H330V229ZM337.5 236.5H342.5V241.5H337.5V236.5ZM337.5 229H342.5V234H337.5V229ZM352.5 244H357.5V249H352.5V244ZM345 236.5H350V241.5H345V236.5ZM345 229H350V234H345V229ZM352.5 229H357.5V241.5H352.5V229Z" fill="white" fill-opacity="0.5"/>
<path d="M352.5 84.5H387.5C389.489 84.5 391.397 85.2902 392.803 86.6967C394.21 88.1032 395 90.0109 395 92V112C395 113.989 394.21 115.897 392.803 117.303C391.397 118.71 389.489 119.5 387.5 119.5H352.5C350.511 119.5 348.603 118.71 347.197 117.303C345.79 115.897 345 113.989 345 112V92C345 90.0109 345.79 88.1032 347.197 86.6967C348.603 85.2902 350.511 84.5 352.5 84.5V84.5ZM352.5 89.5C351.837 89.5 351.201 89.7634 350.732 90.2322C350.263 90.7011 350 91.337 350 92V112C350 112.663 350.263 113.299 350.732 113.768C351.201 114.237 351.837 114.5 352.5 114.5H387.5C388.163 114.5 388.799 114.237 389.268 113.768C389.737 113.299 390 112.663 390 112V92C390 91.337 389.737 90.7011 389.268 90.2322C388.799 89.7634 388.163 89.5 387.5 89.5H352.5ZM352.5 99.5H357.5V104.5H352.5V99.5ZM352.5 92H357.5V97H352.5V92ZM352.5 107H357.5V112H352.5V107ZM360 107H380V112H360V107ZM360 99.5H365V104.5H360V99.5ZM360 92H365V97H360V92ZM367.5 99.5H372.5V104.5H367.5V99.5ZM367.5 92H372.5V97H367.5V92ZM382.5 107H387.5V112H382.5V107ZM375 99.5H380V104.5H375V99.5ZM375 92H380V97H375V92ZM382.5 92H387.5V104.5H382.5V92Z" fill="white" fill-opacity="0.5"/>
</g>
<g style="mix-blend-mode:overlay">
<path d="M1107.61 53.1421L1095.23 40.7678C1094.26 39.7915 1094.26 38.2085 1095.23 37.2322C1096.21 36.2559 1097.79 36.2559 1098.77 37.2322L1112.91 51.3744C1113.89 52.3507 1113.89 53.9336 1112.91 54.9099L1098.77 69.052C1097.79 70.0283 1096.21 70.0283 1095.23 69.052C1094.26 68.0757 1094.26 66.4928 1095.23 65.5165L1107.61 53.1421ZM1117 64H1137C1138.38 64 1139.5 65.1193 1139.5 66.5C1139.5 67.8807 1138.38 69 1137 69H1117C1115.62 69 1114.5 67.8807 1114.5 66.5C1114.5 65.1193 1115.62 64 1117 64Z" fill="white" fill-opacity="0.5"/>
<path d="M1299.61 173.142L1287.23 160.768C1286.26 159.791 1286.26 158.209 1287.23 157.232C1288.21 156.256 1289.79 156.256 1290.77 157.232L1304.91 171.374C1305.89 172.351 1305.89 173.934 1304.91 174.91L1290.77 189.052C1289.79 190.028 1288.21 190.028 1287.23 189.052C1286.26 188.076 1286.26 186.493 1287.23 185.517L1299.61 173.142ZM1309 184H1329C1330.38 184 1331.5 185.119 1331.5 186.5C1331.5 187.881 1330.38 189 1329 189H1309C1307.62 189 1306.5 187.881 1306.5 186.5C1306.5 185.119 1307.62 184 1309 184Z" fill="white" fill-opacity="0.5"/>
<path d="M1296.84 44.1599C1298.14 44.6584 1298.81 46.1729 1298.33 47.5425L1286.36 82.2628C1285.89 83.6324 1284.46 84.3386 1283.16 83.8401C1281.86 83.3416 1281.19 81.8271 1281.67 80.4575L1293.64 45.7372C1294.11 44.3676 1295.54 43.6614 1296.84 44.1599ZM1271.04 64.6404L1279.87 73.9713C1280.85 75.0019 1280.85 76.673 1279.87 77.7036C1278.9 78.7343 1277.32 78.7343 1276.34 77.7036L1265.73 66.5066C1264.76 65.4759 1264.76 63.8049 1265.73 62.7742L1276.34 51.5771C1277.32 50.5465 1278.9 50.5465 1279.87 51.5771C1280.85 52.6078 1280.85 54.2788 1279.87 55.3095L1271.04 64.6404ZM1308.96 64.6404L1300.13 55.3095C1299.15 54.2788 1299.15 52.6078 1300.13 51.5771C1301.1 50.5465 1302.68 50.5465 1303.66 51.5771L1314.27 62.7742C1315.24 63.8049 1315.24 65.4759 1314.27 66.5066L1303.66 77.7036C1302.68 78.7343 1301.1 78.7343 1300.13 77.7036C1299.15 76.673 1299.15 75.0019 1300.13 73.9713L1308.96 64.6404Z" fill="white" fill-opacity="0.5"/>
<path d="M1108.84 209.16C1110.14 209.658 1110.81 211.173 1110.33 212.543L1098.36 247.263C1097.89 248.632 1096.46 249.339 1095.16 248.84C1093.86 248.342 1093.19 246.827 1093.67 245.457L1105.64 210.737C1106.11 209.368 1107.54 208.661 1108.84 209.16ZM1083.04 229.64L1091.87 238.971C1092.85 240.002 1092.85 241.673 1091.87 242.704C1090.9 243.734 1089.32 243.734 1088.34 242.704L1077.73 231.507C1076.76 230.476 1076.76 228.805 1077.73 227.774L1088.34 216.577C1089.32 215.546 1090.9 215.546 1091.87 216.577C1092.85 217.608 1092.85 219.279 1091.87 220.309L1083.04 229.64ZM1120.96 229.64L1112.13 220.309C1111.15 219.279 1111.15 217.608 1112.13 216.577C1113.1 215.546 1114.68 215.546 1115.66 216.577L1126.27 227.774C1127.24 228.805 1127.24 230.476 1126.27 231.507L1115.66 242.704C1114.68 243.734 1113.1 243.734 1112.13 242.704C1111.15 241.673 1111.15 240.002 1112.13 238.971L1120.96 229.64Z" fill="white" fill-opacity="0.5"/>
<path d="M990.84 20.1599C992.138 20.6584 992.807 22.1729 992.335 23.5425L980.364 58.2628C979.892 59.6324 978.457 60.3386 977.16 59.8401C975.862 59.3416 975.193 57.8271 975.665 56.4575L987.636 21.7372C988.108 20.3676 989.543 19.6614 990.84 20.1599ZM965.036 40.6404L973.874 49.9713C974.851 51.0019 974.851 52.673 973.874 53.7036C972.898 54.7343 971.315 54.7343 970.339 53.7036L959.732 42.5066C958.756 41.4759 958.756 39.8049 959.732 38.7742L970.339 27.5771C971.315 26.5465 972.898 26.5465 973.874 27.5771C974.851 28.6078 974.851 30.2788 973.874 31.3095L965.036 40.6404ZM1002.96 40.6404L994.126 31.3095C993.149 30.2788 993.149 28.6078 994.126 27.5771C995.102 26.5465 996.685 26.5465 997.661 27.5771L1008.27 38.7742C1009.24 39.8049 1009.24 41.4759 1008.27 42.5066L997.661 53.7036C996.685 54.7343 995.102 54.7343 994.126 53.7036C993.149 52.673 993.149 51.0019 994.126 49.9713L1002.96 40.6404Z" fill="white" fill-opacity="0.5"/>
<path d="M1169.5 125.5H1204.5C1206.49 125.5 1208.4 126.29 1209.8 127.697C1211.21 129.103 1212 131.011 1212 133V153C1212 154.989 1211.21 156.897 1209.8 158.303C1208.4 159.71 1206.49 160.5 1204.5 160.5H1169.5C1167.51 160.5 1165.6 159.71 1164.2 158.303C1162.79 156.897 1162 154.989 1162 153V133C1162 131.011 1162.79 129.103 1164.2 127.697C1165.6 126.29 1167.51 125.5 1169.5 125.5V125.5ZM1169.5 130.5C1168.84 130.5 1168.2 130.763 1167.73 131.232C1167.26 131.701 1167 132.337 1167 133V153C1167 153.663 1167.26 154.299 1167.73 154.768C1168.2 155.237 1168.84 155.5 1169.5 155.5H1204.5C1205.16 155.5 1205.8 155.237 1206.27 154.768C1206.74 154.299 1207 153.663 1207 153V133C1207 132.337 1206.74 131.701 1206.27 131.232C1205.8 130.763 1205.16 130.5 1204.5 130.5H1169.5ZM1169.5 140.5H1174.5V145.5H1169.5V140.5ZM1169.5 133H1174.5V138H1169.5V133ZM1169.5 148H1174.5V153H1169.5V148ZM1177 148H1197V153H1177V148ZM1177 140.5H1182V145.5H1177V140.5ZM1177 133H1182V138H1177V133ZM1184.5 140.5H1189.5V145.5H1184.5V140.5ZM1184.5 133H1189.5V138H1184.5V133ZM1199.5 148H1204.5V153H1199.5V148ZM1192 140.5H1197V145.5H1192V140.5ZM1192 133H1197V138H1192V133ZM1199.5 133H1204.5V145.5H1199.5V133Z" fill="white" fill-opacity="0.5"/>
<path d="M1224.5 216.5H1259.5C1261.49 216.5 1263.4 217.29 1264.8 218.697C1266.21 220.103 1267 222.011 1267 224V244C1267 245.989 1266.21 247.897 1264.8 249.303C1263.4 250.71 1261.49 251.5 1259.5 251.5H1224.5C1222.51 251.5 1220.6 250.71 1219.2 249.303C1217.79 247.897 1217 245.989 1217 244V224C1217 222.011 1217.79 220.103 1219.2 218.697C1220.6 217.29 1222.51 216.5 1224.5 216.5V216.5ZM1224.5 221.5C1223.84 221.5 1223.2 221.763 1222.73 222.232C1222.26 222.701 1222 223.337 1222 224V244C1222 244.663 1222.26 245.299 1222.73 245.768C1223.2 246.237 1223.84 246.5 1224.5 246.5H1259.5C1260.16 246.5 1260.8 246.237 1261.27 245.768C1261.74 245.299 1262 244.663 1262 244V224C1262 223.337 1261.74 222.701 1261.27 222.232C1260.8 221.763 1260.16 221.5 1259.5 221.5H1224.5ZM1224.5 231.5H1229.5V236.5H1224.5V231.5ZM1224.5 224H1229.5V229H1224.5V224ZM1224.5 239H1229.5V244H1224.5V239ZM1232 239H1252V244H1232V239ZM1232 231.5H1237V236.5H1232V231.5ZM1232 224H1237V229H1232V224ZM1239.5 231.5H1244.5V236.5H1239.5V231.5ZM1239.5 224H1244.5V229H1239.5V224ZM1254.5 239H1259.5V244H1254.5V239ZM1247 231.5H1252V236.5H1247V231.5ZM1247 224H1252V229H1247V224ZM1254.5 224H1259.5V236.5H1254.5V224Z" fill="white" fill-opacity="0.5"/>
<path d="M1375.5 82.5H1410.5C1412.49 82.5 1414.4 83.2902 1415.8 84.6967C1417.21 86.1032 1418 88.0109 1418 90V110C1418 111.989 1417.21 113.897 1415.8 115.303C1414.4 116.71 1412.49 117.5 1410.5 117.5H1375.5C1373.51 117.5 1371.6 116.71 1370.2 115.303C1368.79 113.897 1368 111.989 1368 110V90C1368 88.0109 1368.79 86.1032 1370.2 84.6967C1371.6 83.2902 1373.51 82.5 1375.5 82.5V82.5ZM1375.5 87.5C1374.84 87.5 1374.2 87.7634 1373.73 88.2322C1373.26 88.7011 1373 89.337 1373 90V110C1373 110.663 1373.26 111.299 1373.73 111.768C1374.2 112.237 1374.84 112.5 1375.5 112.5H1410.5C1411.16 112.5 1411.8 112.237 1412.27 111.768C1412.74 111.299 1413 110.663 1413 110V90C1413 89.337 1412.74 88.7011 1412.27 88.2322C1411.8 87.7634 1411.16 87.5 1410.5 87.5H1375.5ZM1375.5 97.5H1380.5V102.5H1375.5V97.5ZM1375.5 90H1380.5V95H1375.5V90ZM1375.5 105H1380.5V110H1375.5V105ZM1383 105H1403V110H1383V105ZM1383 97.5H1388V102.5H1383V97.5ZM1383 90H1388V95H1383V90ZM1390.5 97.5H1395.5V102.5H1390.5V97.5ZM1390.5 90H1395.5V95H1390.5V90ZM1405.5 105H1410.5V110H1405.5V105ZM1398 97.5H1403V102.5H1398V97.5ZM1398 90H1403V95H1398V90ZM1405.5 90H1410.5V102.5H1405.5V90Z" fill="white" fill-opacity="0.5"/>
</g>
<defs>
<linearGradient id="paint0_linear" x1="-204" y1="-118.539" x2="1554.34" y2="753.761" gradientUnits="userSpaceOnUse">
<stop stop-color="#5452E0"/>
<stop offset="1" stop-color="#1714B8"/>
</linearGradient>
</defs>
</svg>
