<svg width="23" height="32" viewBox="0 0 23 32" fill="none" xmlns="http://www.w3.org/2000/svg">
<path d="M8.21429 28.8V32H4.92857V28.8H0V0H18.0714C19.3786 0 20.6322 0.505713 21.5565 1.40589C22.4807 2.30606 23 3.52696 23 4.8V24C23 25.273 22.4807 26.4939 21.5565 27.3941C20.6322 28.2943 19.3786 28.8 18.0714 28.8H8.21429ZM4.92857 3.2H3.28571V25.6H4.92857V3.2ZM8.21429 3.2V25.6H18.0714C18.5071 25.6 18.925 25.4314 19.2331 25.1314C19.5412 24.8313 19.7143 24.4243 19.7143 24V4.8C19.7143 4.37565 19.5412 3.96869 19.2331 3.66863C18.925 3.36857 18.5071 3.2 18.0714 3.2H8.21429ZM9.85714 6.4H18.0714V9.6H9.85714V6.4ZM9.85714 11.2H18.0714V14.4H9.85714V11.2Z" fill="white"/>
</svg>
