<svg width="26" height="26" viewBox="0 0 26 26" fill="none" xmlns="http://www.w3.org/2000/svg">
<path d="M13 16.9C14.0343 16.9 15.0263 16.4891 15.7577 15.7577C16.4891 15.0263 16.9 14.0343 16.9 13C16.9 11.9657 16.4891 10.9737 15.7577 10.2423C15.0263 9.51089 14.0343 9.1 13 9.1C11.9657 9.1 10.9737 9.51089 10.2423 10.2423C9.51089 10.9737 9.1 11.9657 9.1 13C9.1 14.0343 9.51089 15.0263 10.2423 15.7577C10.9737 16.4891 11.9657 16.9 13 16.9ZM13 19.5C11.2761 19.5 9.62279 18.8152 8.40381 17.5962C7.18482 16.3772 6.5 14.7239 6.5 13C6.5 11.2761 7.18482 9.62279 8.40381 8.40381C9.62279 7.18482 11.2761 6.5 13 6.5C14.7239 6.5 16.3772 7.18482 17.5962 8.40381C18.8152 9.62279 19.5 11.2761 19.5 13C19.5 14.7239 18.8152 16.3772 17.5962 17.5962C16.3772 18.8152 14.7239 19.5 13 19.5ZM13 0C13.3448 0 13.6754 0.136964 13.9192 0.380761C14.163 0.624558 14.3 0.955218 14.3 1.3V3.9C14.3 4.24478 14.163 4.57544 13.9192 4.81924C13.6754 5.06304 13.3448 5.2 13 5.2C12.6552 5.2 12.3246 5.06304 12.0808 4.81924C11.837 4.57544 11.7 4.24478 11.7 3.9V1.3C11.7 0.955218 11.837 0.624558 12.0808 0.380761C12.3246 0.136964 12.6552 0 13 0V0ZM13 20.8C13.3448 20.8 13.6754 20.937 13.9192 21.1808C14.163 21.4246 14.3 21.7552 14.3 22.1V24.7C14.3 25.0448 14.163 25.3754 13.9192 25.6192C13.6754 25.863 13.3448 26 13 26C12.6552 26 12.3246 25.863 12.0808 25.6192C11.837 25.3754 11.7 25.0448 11.7 24.7V22.1C11.7 21.7552 11.837 21.4246 12.0808 21.1808C12.3246 20.937 12.6552 20.8 13 20.8ZM1.3 11.7H3.9C4.24478 11.7 4.57544 11.837 4.81924 12.0808C5.06304 12.3246 5.2 12.6552 5.2 13C5.2 13.3448 5.06304 13.6754 4.81924 13.9192C4.57544 14.163 4.24478 14.3 3.9 14.3H1.3C0.955218 14.3 0.624558 14.163 0.380761 13.9192C0.136964 13.6754 0 13.3448 0 13C0 12.6552 0.136964 12.3246 0.380761 12.0808C0.624558 11.837 0.955218 11.7 1.3 11.7ZM22.1 11.7H24.7C25.0448 11.7 25.3754 11.837 25.6192 12.0808C25.863 12.3246 26 12.6552 26 13C26 13.3448 25.863 13.6754 25.6192 13.9192C25.3754 14.163 25.0448 14.3 24.7 14.3H22.1C21.7552 14.3 21.4246 14.163 21.1808 13.9192C20.937 13.6754 20.8 13.3448 20.8 13C20.8 12.6552 20.937 12.3246 21.1808 12.0808C21.4246 11.837 21.7552 11.7 22.1 11.7ZM22.1923 3.8077C22.436 4.05149 22.5729 4.38209 22.5729 4.7268C22.5729 5.07151 22.436 5.40211 22.1923 5.6459L20.3541 7.4841C20.2342 7.60826 20.0907 7.7073 19.9321 7.77543C19.7735 7.84356 19.6029 7.87943 19.4303 7.88093C19.2577 7.88243 19.0865 7.84953 18.9268 7.78417C18.767 7.7188 18.6218 7.62227 18.4998 7.50021C18.3777 7.37815 18.2812 7.23301 18.2158 7.07324C18.1505 6.91348 18.1176 6.74229 18.1191 6.56968C18.1206 6.39707 18.1564 6.22648 18.2246 6.06787C18.2927 5.90927 18.3917 5.76582 18.5159 5.6459L20.3541 3.8077C20.5979 3.56399 20.9285 3.42708 21.2732 3.42708C21.6179 3.42708 21.9485 3.56399 22.1923 3.8077ZM7.4841 18.5159C7.72781 18.7597 7.86472 19.0903 7.86472 19.435C7.86472 19.7797 7.72781 20.1103 7.4841 20.3541L5.6459 22.191C5.52598 22.3152 5.38253 22.4142 5.22393 22.4823C5.06532 22.5505 4.89473 22.5863 4.72212 22.5878C4.54951 22.5893 4.37832 22.5564 4.21856 22.4911C4.05879 22.4257 3.91365 22.3292 3.79159 22.2071C3.66953 22.0851 3.573 21.9399 3.50763 21.7801C3.44227 21.6204 3.40937 21.4492 3.41087 21.2766C3.41237 21.104 3.44824 20.9334 3.51637 20.7748C3.5845 20.6162 3.68354 20.4727 3.8077 20.3528L5.6459 18.5146C5.88969 18.2709 6.22029 18.134 6.565 18.134C6.90971 18.134 7.24031 18.2709 7.4841 18.5146V18.5159ZM5.6459 3.8077L7.4841 5.6459C7.72091 5.89108 7.85194 6.21947 7.84898 6.56032C7.84601 6.90118 7.70929 7.22723 7.46826 7.46826C7.22723 7.70929 6.90118 7.84601 6.56032 7.84898C6.21947 7.85194 5.89108 7.72091 5.6459 7.4841L3.809 5.6459C3.58182 5.39907 3.45885 5.07398 3.4658 4.7386C3.47275 4.40321 3.60908 4.08349 3.84628 3.84628C4.08349 3.60908 4.40321 3.47275 4.7386 3.4658C5.07398 3.45885 5.39907 3.58182 5.6459 3.809V3.8077ZM20.3541 18.5159L22.1923 20.3541C22.4291 20.5993 22.5601 20.9277 22.5572 21.2685C22.5542 21.6094 22.4175 21.9354 22.1765 22.1765C21.9354 22.4175 21.6094 22.5542 21.2685 22.5572C20.9277 22.5601 20.5993 22.4291 20.3541 22.1923L18.5159 20.3541C18.3917 20.2342 18.2927 20.0907 18.2246 19.9321C18.1564 19.7735 18.1206 19.6029 18.1191 19.4303C18.1176 19.2577 18.1505 19.0865 18.2158 18.9268C18.2812 18.767 18.3777 18.6218 18.4998 18.4998C18.6218 18.3777 18.767 18.2812 18.9268 18.2158C19.0865 18.1505 19.2577 18.1176 19.4303 18.1191C19.6029 18.1206 19.7735 18.1564 19.9321 18.2246C20.0907 18.2927 20.2342 18.3917 20.3541 18.5159Z" fill="#B9B9C6"/>
</svg>
