<svg width="76" height="14" viewBox="0 0 76 14" fill="none" xmlns="http://www.w3.org/2000/svg">
<path d="M6.7425 6.32C6.8065 6.576 6.8385 6.896 6.8385 7.28C6.8385 7.648 6.8065 7.968 6.7425 8.24H2.9025C2.9665 8.496 2.9985 8.816 2.9985 9.2C2.9985 9.568 2.9665 9.888 2.9025 10.16C2.9665 10.416 2.9985 10.736 2.9985 11.12C2.9985 11.488 2.9665 11.808 2.9025 12.08C2.9665 12.336 2.9985 12.656 2.9985 13.04C2.9985 13.408 2.9665 13.728 2.9025 14H0.9825C0.9185 13.728 0.8865 13.408 0.8865 13.04C0.8865 12.656 0.9185 12.336 0.9825 12.08C0.9185 11.808 0.8865 11.488 0.8865 11.12C0.8865 10.736 0.9185 10.416 0.9825 10.16C0.9185 9.888 0.8865 9.568 0.8865 9.2C0.8865 8.816 0.9185 8.496 0.9825 8.24C0.9185 7.968 0.8865 7.648 0.8865 7.28C0.8865 6.896 0.9185 6.576 0.9825 6.32C0.9185 6.048 0.8865 5.728 0.8865 5.36C0.8865 4.976 0.9185 4.656 0.9825 4.4C0.9185 4.128 0.8865 3.808 0.8865 3.44C0.8865 3.056 0.9185 2.736 0.9825 2.48C0.9185 2.208 0.8865 1.888 0.8865 1.52C0.8865 1.136 0.9185 0.816 0.9825 0.56H6.7425C6.8065 0.816 6.8385 1.136 6.8385 1.52C6.8385 1.888 6.8065 2.208 6.7425 2.48H2.9025C2.9665 2.736 2.9985 3.056 2.9985 3.44C2.9985 3.808 2.9665 4.128 2.9025 4.4C2.9665 4.656 2.9985 4.976 2.9985 5.36C2.9985 5.728 2.9665 6.048 2.9025 6.32H6.7425ZM12.5119 2.48C12.4479 2.208 12.4159 1.888 12.4159 1.52C12.4159 1.136 12.4479 0.816 12.5119 0.56H14.4319C14.4959 0.816 14.5279 1.136 14.5279 1.52C14.5279 1.888 14.4959 2.208 14.4319 2.48H12.5119ZM16.3519 12.08C16.4159 12.336 16.4479 12.656 16.4479 13.04C16.4479 13.408 16.4159 13.728 16.3519 14H10.5919C10.5279 13.728 10.4959 13.408 10.4959 13.04C10.4959 12.656 10.5279 12.336 10.5919 12.08H12.5119C12.4479 11.808 12.4159 11.488 12.4159 11.12C12.4159 10.736 12.4479 10.416 12.5119 10.16C12.4479 9.888 12.4159 9.568 12.4159 9.2C12.4159 8.816 12.4479 8.496 12.5119 8.24C12.4479 7.968 12.4159 7.648 12.4159 7.28C12.4159 6.896 12.4479 6.576 12.5119 6.32H11.0719C11.0079 6.048 10.9759 5.728 10.9759 5.36C10.9759 4.976 11.0079 4.656 11.0719 4.4H14.4319C14.4959 4.656 14.5279 4.976 14.5279 5.36C14.5279 5.728 14.4959 6.048 14.4319 6.32C14.4959 6.576 14.5279 6.896 14.5279 7.28C14.5279 7.648 14.4959 7.968 14.4319 8.24C14.4959 8.496 14.5279 8.816 14.5279 9.2C14.5279 9.568 14.4959 9.888 14.4319 10.16C14.4959 10.416 14.5279 10.736 14.5279 11.12C14.5279 11.488 14.4959 11.808 14.4319 12.08H16.3519ZM21.0173 5.36C21.0173 5.728 20.9853 6.048 20.9213 6.32H21.8813C21.9453 6.576 21.9773 6.896 21.9773 7.28C21.9773 7.648 21.9453 7.968 21.8813 8.24H21.1613C21.2253 8.496 21.2573 8.816 21.2573 9.2C21.2573 9.568 21.2253 9.888 21.1613 10.16C21.2253 10.416 21.2573 10.736 21.2573 11.12C21.2573 11.488 21.2253 11.808 21.1613 12.08C21.2253 12.336 21.2573 12.656 21.2573 13.04C21.2573 13.408 21.2253 13.728 21.1613 14H19.2413C19.1773 13.728 19.1453 13.408 19.1453 13.04C19.1453 12.656 19.1773 12.336 19.2413 12.08C19.1773 11.808 19.1453 11.488 19.1453 11.12C19.1453 10.736 19.1773 10.416 19.2413 10.16C19.1773 9.888 19.1453 9.568 19.1453 9.2C19.1453 8.816 19.1773 8.496 19.2413 8.24C19.1773 7.968 19.1453 7.648 19.1453 7.28C19.1453 6.896 19.1773 6.576 19.2413 6.32C19.1773 6.048 19.1453 5.728 19.1453 5.36C19.1453 4.976 19.1773 4.656 19.2413 4.4H20.9213C20.9853 4.656 21.0173 4.976 21.0173 5.36ZM26.9213 8.24C26.9853 8.496 27.0173 8.816 27.0173 9.2C27.0173 9.568 26.9853 9.888 26.9213 10.16C26.9853 10.416 27.0173 10.736 27.0173 11.12C27.0173 11.488 26.9853 11.808 26.9213 12.08C26.9853 12.336 27.0173 12.656 27.0173 13.04C27.0173 13.408 26.9853 13.728 26.9213 14H25.0013C24.9373 13.728 24.9053 13.408 24.9053 13.04C24.9053 12.656 24.9373 12.336 25.0013 12.08C24.9373 11.808 24.9053 11.488 24.9053 11.12C24.9053 10.736 24.9373 10.416 25.0013 10.16C24.9373 9.888 24.9053 9.568 24.9053 9.2C24.9053 8.816 24.9373 8.496 25.0013 8.24C24.9373 7.968 24.9053 7.648 24.9053 7.28C24.9053 6.896 24.9373 6.576 25.0013 6.32H21.8813C21.8173 6.048 21.7853 5.728 21.7853 5.36C21.7853 4.976 21.8173 4.656 21.8813 4.4H25.7213C25.7853 4.656 25.8173 4.976 25.8173 5.36C25.8173 5.728 25.7853 6.048 25.7213 6.32H26.9213C26.9853 6.576 27.0173 6.896 27.0173 7.28C27.0173 7.648 26.9853 7.968 26.9213 8.24ZM36.5306 2.48C36.5946 2.736 36.6266 3.056 36.6266 3.44C36.6266 3.808 36.5946 4.128 36.5306 4.4C36.5946 4.656 36.6266 4.976 36.6266 5.36C36.6266 5.728 36.5946 6.048 36.5306 6.32C36.5946 6.576 36.6266 6.896 36.6266 7.28C36.6266 7.648 36.5946 7.968 36.5306 8.24C36.5946 8.496 36.6266 8.816 36.6266 9.2C36.6266 9.568 36.5946 9.888 36.5306 10.16C36.5946 10.416 36.6266 10.736 36.6266 11.12C36.6266 11.488 36.5946 11.808 36.5306 12.08C36.5946 12.336 36.6266 12.656 36.6266 13.04C36.6266 13.408 36.5946 13.728 36.5306 14H34.6106C34.5466 13.728 34.5146 13.408 34.5146 13.04C34.5146 12.656 34.5466 12.336 34.6106 12.08H33.8906C33.8266 11.808 33.7946 11.488 33.7946 11.12C33.7946 10.736 33.8266 10.416 33.8906 10.16H34.6106C34.5466 9.888 34.5146 9.568 34.5146 9.2C34.5146 8.816 34.5466 8.496 34.6106 8.24H33.8906C33.8266 7.968 33.7946 7.648 33.7946 7.28C33.7946 6.896 33.8266 6.576 33.8906 6.32H34.6106C34.5466 6.048 34.5146 5.728 34.5146 5.36C34.5146 4.976 34.5466 4.656 34.6106 4.4C34.5466 4.128 34.5146 3.808 34.5146 3.44C34.5146 3.056 34.5466 2.736 34.6106 2.48C34.5466 2.208 34.5146 1.888 34.5146 1.52C34.5146 1.136 34.5466 0.816 34.6106 0.56H36.5306C36.5946 0.816 36.6266 1.136 36.6266 1.52C36.6266 1.888 36.5946 2.208 36.5306 2.48ZM33.5066 5.36C33.5066 5.728 33.4746 6.048 33.4106 6.32H31.0106C31.0746 6.576 31.1066 6.896 31.1066 7.28C31.1066 7.648 31.0746 7.968 31.0106 8.24H30.2906C30.3546 8.496 30.3866 8.816 30.3866 9.2C30.3866 9.568 30.3546 9.888 30.2906 10.16H31.0106C31.0746 10.416 31.1066 10.736 31.1066 11.12C31.1066 11.488 31.0746 11.808 31.0106 12.08H33.4106C33.4746 12.336 33.5066 12.656 33.5066 13.04C33.5066 13.408 33.4746 13.728 33.4106 14H30.7706C30.7066 13.728 30.6746 13.408 30.6746 13.04C30.6746 12.656 30.7066 12.336 30.7706 12.08H29.5706C29.5066 11.808 29.4746 11.488 29.4746 11.12C29.4746 10.736 29.5066 10.416 29.5706 10.16H28.8506C28.7866 9.888 28.7546 9.568 28.7546 9.2C28.7546 8.816 28.7866 8.496 28.8506 8.24H29.5706C29.5066 7.968 29.4746 7.648 29.4746 7.28C29.4746 6.896 29.5066 6.576 29.5706 6.32H30.7706C30.7066 6.048 30.6746 5.728 30.6746 5.36C30.6746 4.976 30.7066 4.656 30.7706 4.4H33.4106C33.4746 4.656 33.5066 4.976 33.5066 5.36ZM46.236 11.12C46.236 11.488 46.204 11.808 46.14 12.08C46.204 12.336 46.236 12.656 46.236 13.04C46.236 13.408 46.204 13.728 46.14 14H44.22C44.156 13.728 44.124 13.408 44.124 13.04C44.124 12.656 44.156 12.336 44.22 12.08C44.156 11.808 44.124 11.488 44.124 11.12C44.124 10.736 44.156 10.416 44.22 10.16H40.38C40.444 10.416 40.476 10.736 40.476 11.12C40.476 11.488 40.444 11.808 40.38 12.08C40.444 12.336 40.476 12.656 40.476 13.04C40.476 13.408 40.444 13.728 40.38 14H38.46C38.396 13.728 38.364 13.408 38.364 13.04C38.364 12.656 38.396 12.336 38.46 12.08C38.396 11.808 38.364 11.488 38.364 11.12C38.364 10.736 38.396 10.416 38.46 10.16H39.18C39.116 9.888 39.084 9.568 39.084 9.2C39.084 8.816 39.116 8.496 39.18 8.24C39.116 7.968 39.084 7.648 39.084 7.28C39.084 6.896 39.116 6.576 39.18 6.32H39.66C39.596 6.048 39.564 5.728 39.564 5.36C39.564 4.976 39.596 4.656 39.66 4.4H40.38C40.316 4.128 40.284 3.808 40.284 3.44C40.284 3.056 40.316 2.736 40.38 2.48H40.86C40.796 2.208 40.764 1.888 40.764 1.52C40.764 1.136 40.796 0.816 40.86 0.56H43.74C43.804 0.816 43.836 1.136 43.836 1.52C43.836 1.888 43.804 2.208 43.74 2.48H44.22C44.284 2.736 44.316 3.056 44.316 3.44C44.316 3.808 44.284 4.128 44.22 4.4H44.94C45.004 4.656 45.036 4.976 45.036 5.36C45.036 5.728 45.004 6.048 44.94 6.32H45.42C45.484 6.576 45.516 6.896 45.516 7.28C45.516 7.648 45.484 7.968 45.42 8.24C45.484 8.496 45.516 8.816 45.516 9.2C45.516 9.568 45.484 9.888 45.42 10.16H46.14C46.204 10.416 46.236 10.736 46.236 11.12ZM43.5 8.24C43.436 7.968 43.404 7.648 43.404 7.28C43.404 6.896 43.436 6.576 43.5 6.32H43.02C42.956 6.048 42.924 5.728 42.924 5.36C42.924 4.976 42.956 4.656 43.02 4.4H41.58C41.644 4.656 41.676 4.976 41.676 5.36C41.676 5.728 41.644 6.048 41.58 6.32H41.1C41.164 6.576 41.196 6.896 41.196 7.28C41.196 7.648 41.164 7.968 41.1 8.24H43.5Z" fill="white"/>
<path d="M55.7494 6.32C55.8134 6.576 55.8454 6.896 55.8454 7.28C55.8454 7.648 55.8134 7.968 55.7494 8.24C55.8134 8.496 55.8454 8.816 55.8454 9.2C55.8454 9.568 55.8134 9.888 55.7494 10.16H54.7894C54.8534 10.416 54.8854 10.736 54.8854 11.12C54.8854 11.488 54.8534 11.808 54.7894 12.08H53.8294C53.8934 12.336 53.9254 12.656 53.9254 13.04C53.9254 13.408 53.8934 13.728 53.8294 14H48.0694C48.0054 13.728 47.9734 13.408 47.9734 13.04C47.9734 12.656 48.0054 12.336 48.0694 12.08C48.0054 11.808 47.9734 11.488 47.9734 11.12C47.9734 10.736 48.0054 10.416 48.0694 10.16C48.0054 9.888 47.9734 9.568 47.9734 9.2C47.9734 8.816 48.0054 8.496 48.0694 8.24C48.0054 7.968 47.9734 7.648 47.9734 7.28C47.9734 6.896 48.0054 6.576 48.0694 6.32C48.0054 6.048 47.9734 5.728 47.9734 5.36C47.9734 4.976 48.0054 4.656 48.0694 4.4C48.0054 4.128 47.9734 3.808 47.9734 3.44C47.9734 3.056 48.0054 2.736 48.0694 2.48C48.0054 2.208 47.9734 1.888 47.9734 1.52C47.9734 1.136 48.0054 0.816 48.0694 0.56H53.8294C53.8934 0.816 53.9254 1.136 53.9254 1.52C53.9254 1.888 53.8934 2.208 53.8294 2.48H54.7894C54.8534 2.736 54.8854 3.056 54.8854 3.44C54.8854 3.808 54.8534 4.128 54.7894 4.4H55.7494C55.8134 4.656 55.8454 4.976 55.8454 5.36C55.8454 5.728 55.8134 6.048 55.7494 6.32ZM53.8294 10.16C53.7654 9.888 53.7334 9.568 53.7334 9.2C53.7334 8.816 53.7654 8.496 53.8294 8.24C53.7654 7.968 53.7334 7.648 53.7334 7.28C53.7334 6.896 53.7654 6.576 53.8294 6.32C53.7654 6.048 53.7334 5.728 53.7334 5.36C53.7334 4.976 53.7654 4.656 53.8294 4.4H52.8694C52.8054 4.128 52.7734 3.808 52.7734 3.44C52.7734 3.056 52.8054 2.736 52.8694 2.48H49.9894C50.0534 2.736 50.0854 3.056 50.0854 3.44C50.0854 3.808 50.0534 4.128 49.9894 4.4C50.0534 4.656 50.0854 4.976 50.0854 5.36C50.0854 5.728 50.0534 6.048 49.9894 6.32C50.0534 6.576 50.0854 6.896 50.0854 7.28C50.0854 7.648 50.0534 7.968 49.9894 8.24C50.0534 8.496 50.0854 8.816 50.0854 9.2C50.0854 9.568 50.0534 9.888 49.9894 10.16C50.0534 10.416 50.0854 10.736 50.0854 11.12C50.0854 11.488 50.0534 11.808 49.9894 12.08H52.8694C52.8054 11.808 52.7734 11.488 52.7734 11.12C52.7734 10.736 52.8054 10.416 52.8694 10.16H53.8294ZM65.4548 7.28C65.4548 7.648 65.4228 7.968 65.3588 8.24C65.4228 8.496 65.4548 8.816 65.4548 9.2C65.4548 9.568 65.4228 9.888 65.3588 10.16H60.3188C60.3828 10.416 60.4148 10.736 60.4148 11.12C60.4148 11.488 60.3828 11.808 60.3188 12.08H64.3988C64.4628 12.336 64.4948 12.656 64.4948 13.04C64.4948 13.408 64.4628 13.728 64.3988 14H59.5988C59.5348 13.728 59.5028 13.408 59.5028 13.04C59.5028 12.656 59.5348 12.336 59.5988 12.08H58.3988C58.3347 11.808 58.3027 11.488 58.3027 11.12C58.3027 10.736 58.3347 10.416 58.3988 10.16H57.6788C57.6148 9.888 57.5828 9.568 57.5828 9.2C57.5828 8.816 57.6148 8.496 57.6788 8.24H58.3988C58.3347 7.968 58.3027 7.648 58.3027 7.28C58.3027 6.896 58.3347 6.576 58.3988 6.32H59.5988C59.5348 6.048 59.5028 5.728 59.5028 5.36C59.5028 4.976 59.5348 4.656 59.5988 4.4H64.3988C64.4628 4.656 64.4948 4.976 64.4948 5.36C64.4948 5.728 64.4628 6.048 64.3988 6.32H65.3588C65.4228 6.576 65.4548 6.896 65.4548 7.28ZM63.4388 8.24C63.3748 7.968 63.3428 7.648 63.3428 7.28C63.3428 6.896 63.3748 6.576 63.4388 6.32H60.3188C60.3828 6.576 60.4148 6.896 60.4148 7.28C60.4148 7.648 60.3828 7.968 60.3188 8.24H63.4388ZM75.0641 5.36C75.0641 5.728 75.0321 6.048 74.9681 6.32H74.2481C74.3121 6.576 74.3441 6.896 74.3441 7.28C74.3441 7.648 74.3121 7.968 74.2481 8.24H73.5281C73.5921 8.496 73.6241 8.816 73.6241 9.2C73.6241 9.568 73.5921 9.888 73.5281 10.16H73.0481C73.1121 10.416 73.1441 10.736 73.1441 11.12C73.1441 11.488 73.1121 11.808 73.0481 12.08H72.0881C72.1521 12.336 72.1841 12.656 72.1841 13.04C72.1841 13.408 72.1521 13.728 72.0881 14H70.1681C70.1041 13.728 70.0721 13.408 70.0721 13.04C70.0721 12.656 70.1041 12.336 70.1681 12.08H69.2081C69.1441 11.808 69.1121 11.488 69.1121 11.12C69.1121 10.736 69.1441 10.416 69.2081 10.16H68.7281C68.6641 9.888 68.6321 9.568 68.6321 9.2C68.6321 8.816 68.6641 8.496 68.7281 8.24H68.0081C67.9441 7.968 67.9121 7.648 67.9121 7.28C67.9121 6.896 67.9441 6.576 68.0081 6.32H67.2881C67.2241 6.048 67.1921 5.728 67.1921 5.36C67.1921 4.976 67.2241 4.656 67.2881 4.4H69.2081C69.2721 4.656 69.3041 4.976 69.3041 5.36C69.3041 5.728 69.2721 6.048 69.2081 6.32H69.9281C69.9921 6.576 70.0241 6.896 70.0241 7.28C70.0241 7.648 69.9921 7.968 69.9281 8.24H70.6481C70.7121 8.496 70.7441 8.816 70.7441 9.2C70.7441 9.568 70.7121 9.888 70.6481 10.16H71.6081C71.5441 9.888 71.5121 9.568 71.5121 9.2C71.5121 8.816 71.5441 8.496 71.6081 8.24H72.3281C72.2641 7.968 72.2321 7.648 72.2321 7.28C72.2321 6.896 72.2641 6.576 72.3281 6.32H73.0481C72.9841 6.048 72.9521 5.728 72.9521 5.36C72.9521 4.976 72.9841 4.656 73.0481 4.4H74.9681C75.0321 4.656 75.0641 4.976 75.0641 5.36Z" fill="#D8C626"/>
</svg>
