<svg width="75" height="14" viewBox="0 0 75 14" fill="none" xmlns="http://www.w3.org/2000/svg">
<path d="M6.7425 6.32C6.8065 6.576 6.8385 6.896 6.8385 7.28C6.8385 7.648 6.8065 7.968 6.7425 8.24H2.9025C2.9665 8.496 2.9985 8.816 2.9985 9.2C2.9985 9.568 2.9665 9.888 2.9025 10.16C2.9665 10.416 2.9985 10.736 2.9985 11.12C2.9985 11.488 2.9665 11.808 2.9025 12.08C2.9665 12.336 2.9985 12.656 2.9985 13.04C2.9985 13.408 2.9665 13.728 2.9025 14H0.9825C0.9185 13.728 0.8865 13.408 0.8865 13.04C0.8865 12.656 0.9185 12.336 0.9825 12.08C0.9185 11.808 0.8865 11.488 0.8865 11.12C0.8865 10.736 0.9185 10.416 0.9825 10.16C0.9185 9.888 0.8865 9.568 0.8865 9.2C0.8865 8.816 0.9185 8.496 0.9825 8.24C0.9185 7.968 0.8865 7.648 0.8865 7.28C0.8865 6.896 0.9185 6.576 0.9825 6.32C0.9185 6.048 0.8865 5.728 0.8865 5.36C0.8865 4.976 0.9185 4.656 0.9825 4.4C0.9185 4.128 0.8865 3.808 0.8865 3.44C0.8865 3.056 0.9185 2.736 0.9825 2.48C0.9185 2.208 0.8865 1.888 0.8865 1.52C0.8865 1.136 0.9185 0.816 0.9825 0.56H6.7425C6.8065 0.816 6.8385 1.136 6.8385 1.52C6.8385 1.888 6.8065 2.208 6.7425 2.48H2.9025C2.9665 2.736 2.9985 3.056 2.9985 3.44C2.9985 3.808 2.9665 4.128 2.9025 4.4C2.9665 4.656 2.9985 4.976 2.9985 5.36C2.9985 5.728 2.9665 6.048 2.9025 6.32H6.7425ZM12.5119 2.48C12.4479 2.208 12.4159 1.888 12.4159 1.52C12.4159 1.136 12.4479 0.816 12.5119 0.56H14.4319C14.4959 0.816 14.5279 1.136 14.5279 1.52C14.5279 1.888 14.4959 2.208 14.4319 2.48H12.5119ZM16.3519 12.08C16.4159 12.336 16.4479 12.656 16.4479 13.04C16.4479 13.408 16.4159 13.728 16.3519 14H10.5919C10.5279 13.728 10.4959 13.408 10.4959 13.04C10.4959 12.656 10.5279 12.336 10.5919 12.08H12.5119C12.4479 11.808 12.4159 11.488 12.4159 11.12C12.4159 10.736 12.4479 10.416 12.5119 10.16C12.4479 9.888 12.4159 9.568 12.4159 9.2C12.4159 8.816 12.4479 8.496 12.5119 8.24C12.4479 7.968 12.4159 7.648 12.4159 7.28C12.4159 6.896 12.4479 6.576 12.5119 6.32H11.0719C11.0079 6.048 10.9759 5.728 10.9759 5.36C10.9759 4.976 11.0079 4.656 11.0719 4.4H14.4319C14.4959 4.656 14.5279 4.976 14.5279 5.36C14.5279 5.728 14.4959 6.048 14.4319 6.32C14.4959 6.576 14.5279 6.896 14.5279 7.28C14.5279 7.648 14.4959 7.968 14.4319 8.24C14.4959 8.496 14.5279 8.816 14.5279 9.2C14.5279 9.568 14.4959 9.888 14.4319 10.16C14.4959 10.416 14.5279 10.736 14.5279 11.12C14.5279 11.488 14.4959 11.808 14.4319 12.08H16.3519ZM21.0173 5.36C21.0173 5.728 20.9853 6.048 20.9213 6.32H21.8813C21.9453 6.576 21.9773 6.896 21.9773 7.28C21.9773 7.648 21.9453 7.968 21.8813 8.24H21.1613C21.2253 8.496 21.2573 8.816 21.2573 9.2C21.2573 9.568 21.2253 9.888 21.1613 10.16C21.2253 10.416 21.2573 10.736 21.2573 11.12C21.2573 11.488 21.2253 11.808 21.1613 12.08C21.2253 12.336 21.2573 12.656 21.2573 13.04C21.2573 13.408 21.2253 13.728 21.1613 14H19.2413C19.1773 13.728 19.1453 13.408 19.1453 13.04C19.1453 12.656 19.1773 12.336 19.2413 12.08C19.1773 11.808 19.1453 11.488 19.1453 11.12C19.1453 10.736 19.1773 10.416 19.2413 10.16C19.1773 9.888 19.1453 9.568 19.1453 9.2C19.1453 8.816 19.1773 8.496 19.2413 8.24C19.1773 7.968 19.1453 7.648 19.1453 7.28C19.1453 6.896 19.1773 6.576 19.2413 6.32C19.1773 6.048 19.1453 5.728 19.1453 5.36C19.1453 4.976 19.1773 4.656 19.2413 4.4H20.9213C20.9853 4.656 21.0173 4.976 21.0173 5.36ZM26.9213 8.24C26.9853 8.496 27.0173 8.816 27.0173 9.2C27.0173 9.568 26.9853 9.888 26.9213 10.16C26.9853 10.416 27.0173 10.736 27.0173 11.12C27.0173 11.488 26.9853 11.808 26.9213 12.08C26.9853 12.336 27.0173 12.656 27.0173 13.04C27.0173 13.408 26.9853 13.728 26.9213 14H25.0013C24.9373 13.728 24.9053 13.408 24.9053 13.04C24.9053 12.656 24.9373 12.336 25.0013 12.08C24.9373 11.808 24.9053 11.488 24.9053 11.12C24.9053 10.736 24.9373 10.416 25.0013 10.16C24.9373 9.888 24.9053 9.568 24.9053 9.2C24.9053 8.816 24.9373 8.496 25.0013 8.24C24.9373 7.968 24.9053 7.648 24.9053 7.28C24.9053 6.896 24.9373 6.576 25.0013 6.32H21.8813C21.8173 6.048 21.7853 5.728 21.7853 5.36C21.7853 4.976 21.8173 4.656 21.8813 4.4H25.7213C25.7853 4.656 25.8173 4.976 25.8173 5.36C25.8173 5.728 25.7853 6.048 25.7213 6.32H26.9213C26.9853 6.576 27.0173 6.896 27.0173 7.28C27.0173 7.648 26.9853 7.968 26.9213 8.24ZM36.5306 2.48C36.5946 2.736 36.6266 3.056 36.6266 3.44C36.6266 3.808 36.5946 4.128 36.5306 4.4C36.5946 4.656 36.6266 4.976 36.6266 5.36C36.6266 5.728 36.5946 6.048 36.5306 6.32C36.5946 6.576 36.6266 6.896 36.6266 7.28C36.6266 7.648 36.5946 7.968 36.5306 8.24C36.5946 8.496 36.6266 8.816 36.6266 9.2C36.6266 9.568 36.5946 9.888 36.5306 10.16C36.5946 10.416 36.6266 10.736 36.6266 11.12C36.6266 11.488 36.5946 11.808 36.5306 12.08C36.5946 12.336 36.6266 12.656 36.6266 13.04C36.6266 13.408 36.5946 13.728 36.5306 14H34.6106C34.5466 13.728 34.5146 13.408 34.5146 13.04C34.5146 12.656 34.5466 12.336 34.6106 12.08H33.8906C33.8266 11.808 33.7946 11.488 33.7946 11.12C33.7946 10.736 33.8266 10.416 33.8906 10.16H34.6106C34.5466 9.888 34.5146 9.568 34.5146 9.2C34.5146 8.816 34.5466 8.496 34.6106 8.24H33.8906C33.8266 7.968 33.7946 7.648 33.7946 7.28C33.7946 6.896 33.8266 6.576 33.8906 6.32H34.6106C34.5466 6.048 34.5146 5.728 34.5146 5.36C34.5146 4.976 34.5466 4.656 34.6106 4.4C34.5466 4.128 34.5146 3.808 34.5146 3.44C34.5146 3.056 34.5466 2.736 34.6106 2.48C34.5466 2.208 34.5146 1.888 34.5146 1.52C34.5146 1.136 34.5466 0.816 34.6106 0.56H36.5306C36.5946 0.816 36.6266 1.136 36.6266 1.52C36.6266 1.888 36.5946 2.208 36.5306 2.48ZM33.5066 5.36C33.5066 5.728 33.4746 6.048 33.4106 6.32H31.0106C31.0746 6.576 31.1066 6.896 31.1066 7.28C31.1066 7.648 31.0746 7.968 31.0106 8.24H30.2906C30.3546 8.496 30.3866 8.816 30.3866 9.2C30.3866 9.568 30.3546 9.888 30.2906 10.16H31.0106C31.0746 10.416 31.1066 10.736 31.1066 11.12C31.1066 11.488 31.0746 11.808 31.0106 12.08H33.4106C33.4746 12.336 33.5066 12.656 33.5066 13.04C33.5066 13.408 33.4746 13.728 33.4106 14H30.7706C30.7066 13.728 30.6746 13.408 30.6746 13.04C30.6746 12.656 30.7066 12.336 30.7706 12.08H29.5706C29.5066 11.808 29.4746 11.488 29.4746 11.12C29.4746 10.736 29.5066 10.416 29.5706 10.16H28.8506C28.7866 9.888 28.7546 9.568 28.7546 9.2C28.7546 8.816 28.7866 8.496 28.8506 8.24H29.5706C29.5066 7.968 29.4746 7.648 29.4746 7.28C29.4746 6.896 29.5066 6.576 29.5706 6.32H30.7706C30.7066 6.048 30.6746 5.728 30.6746 5.36C30.6746 4.976 30.7066 4.656 30.7706 4.4H33.4106C33.4746 4.656 33.5066 4.976 33.5066 5.36Z" fill="white"/>
<path d="M46.14 6.32C46.204 6.576 46.236 6.896 46.236 7.28C46.236 7.648 46.204 7.968 46.14 8.24C46.204 8.496 46.236 8.816 46.236 9.2C46.236 9.568 46.204 9.888 46.14 10.16H45.18C45.244 10.416 45.276 10.736 45.276 11.12C45.276 11.488 45.244 11.808 45.18 12.08H44.22C44.284 12.336 44.316 12.656 44.316 13.04C44.316 13.408 44.284 13.728 44.22 14H38.46C38.396 13.728 38.364 13.408 38.364 13.04C38.364 12.656 38.396 12.336 38.46 12.08C38.396 11.808 38.364 11.488 38.364 11.12C38.364 10.736 38.396 10.416 38.46 10.16C38.396 9.888 38.364 9.568 38.364 9.2C38.364 8.816 38.396 8.496 38.46 8.24C38.396 7.968 38.364 7.648 38.364 7.28C38.364 6.896 38.396 6.576 38.46 6.32C38.396 6.048 38.364 5.728 38.364 5.36C38.364 4.976 38.396 4.656 38.46 4.4C38.396 4.128 38.364 3.808 38.364 3.44C38.364 3.056 38.396 2.736 38.46 2.48C38.396 2.208 38.364 1.888 38.364 1.52C38.364 1.136 38.396 0.816 38.46 0.56H44.22C44.284 0.816 44.316 1.136 44.316 1.52C44.316 1.888 44.284 2.208 44.22 2.48H45.18C45.244 2.736 45.276 3.056 45.276 3.44C45.276 3.808 45.244 4.128 45.18 4.4H46.14C46.204 4.656 46.236 4.976 46.236 5.36C46.236 5.728 46.204 6.048 46.14 6.32ZM44.22 10.16C44.156 9.888 44.124 9.568 44.124 9.2C44.124 8.816 44.156 8.496 44.22 8.24C44.156 7.968 44.124 7.648 44.124 7.28C44.124 6.896 44.156 6.576 44.22 6.32C44.156 6.048 44.124 5.728 44.124 5.36C44.124 4.976 44.156 4.656 44.22 4.4H43.26C43.196 4.128 43.164 3.808 43.164 3.44C43.164 3.056 43.196 2.736 43.26 2.48H40.38C40.444 2.736 40.476 3.056 40.476 3.44C40.476 3.808 40.444 4.128 40.38 4.4C40.444 4.656 40.476 4.976 40.476 5.36C40.476 5.728 40.444 6.048 40.38 6.32C40.444 6.576 40.476 6.896 40.476 7.28C40.476 7.648 40.444 7.968 40.38 8.24C40.444 8.496 40.476 8.816 40.476 9.2C40.476 9.568 40.444 9.888 40.38 10.16C40.444 10.416 40.476 10.736 40.476 11.12C40.476 11.488 40.444 11.808 40.38 12.08H43.26C43.196 11.808 43.164 11.488 43.164 11.12C43.164 10.736 43.196 10.416 43.26 10.16H44.22ZM55.8454 7.28C55.8454 7.648 55.8134 7.968 55.7494 8.24C55.8134 8.496 55.8454 8.816 55.8454 9.2C55.8454 9.568 55.8134 9.888 55.7494 10.16H50.7094C50.7734 10.416 50.8054 10.736 50.8054 11.12C50.8054 11.488 50.7734 11.808 50.7094 12.08H54.7894C54.8534 12.336 54.8854 12.656 54.8854 13.04C54.8854 13.408 54.8534 13.728 54.7894 14H49.9894C49.9254 13.728 49.8934 13.408 49.8934 13.04C49.8934 12.656 49.9254 12.336 49.9894 12.08H48.7894C48.7254 11.808 48.6934 11.488 48.6934 11.12C48.6934 10.736 48.7254 10.416 48.7894 10.16H48.0694C48.0054 9.888 47.9734 9.568 47.9734 9.2C47.9734 8.816 48.0054 8.496 48.0694 8.24H48.7894C48.7254 7.968 48.6934 7.648 48.6934 7.28C48.6934 6.896 48.7254 6.576 48.7894 6.32H49.9894C49.9254 6.048 49.8934 5.728 49.8934 5.36C49.8934 4.976 49.9254 4.656 49.9894 4.4H54.7894C54.8534 4.656 54.8854 4.976 54.8854 5.36C54.8854 5.728 54.8534 6.048 54.7894 6.32H55.7494C55.8134 6.576 55.8454 6.896 55.8454 7.28ZM53.8294 8.24C53.7654 7.968 53.7334 7.648 53.7334 7.28C53.7334 6.896 53.7654 6.576 53.8294 6.32H50.7094C50.7734 6.576 50.8054 6.896 50.8054 7.28C50.8054 7.648 50.7734 7.968 50.7094 8.24H53.8294ZM65.4548 5.36C65.4548 5.728 65.4228 6.048 65.3588 6.32H64.6388C64.7028 6.576 64.7348 6.896 64.7348 7.28C64.7348 7.648 64.7028 7.968 64.6388 8.24H63.9188C63.9828 8.496 64.0148 8.816 64.0148 9.2C64.0148 9.568 63.9828 9.888 63.9188 10.16H63.4388C63.5028 10.416 63.5348 10.736 63.5348 11.12C63.5348 11.488 63.5028 11.808 63.4388 12.08H62.4788C62.5428 12.336 62.5748 12.656 62.5748 13.04C62.5748 13.408 62.5428 13.728 62.4788 14H60.5588C60.4948 13.728 60.4628 13.408 60.4628 13.04C60.4628 12.656 60.4948 12.336 60.5588 12.08H59.5988C59.5348 11.808 59.5028 11.488 59.5028 11.12C59.5028 10.736 59.5348 10.416 59.5988 10.16H59.1188C59.0548 9.888 59.0228 9.568 59.0228 9.2C59.0228 8.816 59.0548 8.496 59.1188 8.24H58.3988C58.3347 7.968 58.3027 7.648 58.3027 7.28C58.3027 6.896 58.3347 6.576 58.3988 6.32H57.6788C57.6148 6.048 57.5828 5.728 57.5828 5.36C57.5828 4.976 57.6148 4.656 57.6788 4.4H59.5988C59.6628 4.656 59.6948 4.976 59.6948 5.36C59.6948 5.728 59.6628 6.048 59.5988 6.32H60.3188C60.3828 6.576 60.4148 6.896 60.4148 7.28C60.4148 7.648 60.3828 7.968 60.3188 8.24H61.0388C61.1028 8.496 61.1348 8.816 61.1348 9.2C61.1348 9.568 61.1028 9.888 61.0388 10.16H61.9988C61.9348 9.888 61.9028 9.568 61.9028 9.2C61.9028 8.816 61.9348 8.496 61.9988 8.24H62.7188C62.6548 7.968 62.6228 7.648 62.6228 7.28C62.6228 6.896 62.6548 6.576 62.7188 6.32H63.4388C63.3748 6.048 63.3428 5.728 63.3428 5.36C63.3428 4.976 63.3748 4.656 63.4388 4.4H65.3588C65.4228 4.656 65.4548 4.976 65.4548 5.36ZM74.5841 11.12C74.5841 11.488 74.5521 11.808 74.4881 12.08H73.5281C73.5921 12.336 73.6241 12.656 73.6241 13.04C73.6241 13.408 73.5921 13.728 73.5281 14H68.2481C68.1841 13.728 68.1521 13.408 68.1521 13.04C68.1521 12.656 68.1841 12.336 68.2481 12.08H72.5681C72.5041 11.808 72.4721 11.488 72.4721 11.12C72.4721 10.736 72.5041 10.416 72.5681 10.16H68.7281C68.6641 9.888 68.6321 9.568 68.6321 9.2C68.6321 8.816 68.6641 8.496 68.7281 8.24H67.7681C67.7041 7.968 67.6721 7.648 67.6721 7.28C67.6721 6.896 67.7041 6.576 67.7681 6.32H68.7281C68.6641 6.048 68.6321 5.728 68.6321 5.36C68.6321 4.976 68.6641 4.656 68.7281 4.4H74.0081C74.0721 4.656 74.1041 4.976 74.1041 5.36C74.1041 5.728 74.0721 6.048 74.0081 6.32H69.6881C69.7521 6.576 69.7841 6.896 69.7841 7.28C69.7841 7.648 69.7521 7.968 69.6881 8.24H73.5281C73.5921 8.496 73.6241 8.816 73.6241 9.2C73.6241 9.568 73.5921 9.888 73.5281 10.16H74.4881C74.5521 10.416 74.5841 10.736 74.5841 11.12Z" fill="#D8C626"/>
</svg>
