<svg width="297" height="54" viewBox="0 0 297 54" fill="none" xmlns="http://www.w3.org/2000/svg">
<path d="M23.47 23.28C23.726 24.304 23.854 25.584 23.854 27.12C23.854 28.592 23.726 29.872 23.47 30.96H8.11C8.366 31.984 8.494 33.264 8.494 34.8C8.494 36.272 8.366 37.552 8.11 38.64C8.366 39.664 8.494 40.944 8.494 42.48C8.494 43.952 8.366 45.232 8.11 46.32C8.366 47.344 8.494 48.624 8.494 50.16C8.494 51.632 8.366 52.912 8.11 54H0.430001C0.174001 52.912 0.0460005 51.632 0.0460005 50.16C0.0460005 48.624 0.174001 47.344 0.430001 46.32C0.174001 45.232 0.0460005 43.952 0.0460005 42.48C0.0460005 40.944 0.174001 39.664 0.430001 38.64C0.174001 37.552 0.0460005 36.272 0.0460005 34.8C0.0460005 33.264 0.174001 31.984 0.430001 30.96C0.174001 29.872 0.0460005 28.592 0.0460005 27.12C0.0460005 25.584 0.174001 24.304 0.430001 23.28C0.174001 22.192 0.0460005 20.912 0.0460005 19.44C0.0460005 17.904 0.174001 16.624 0.430001 15.6C0.174001 14.512 0.0460005 13.232 0.0460005 11.76C0.0460005 10.224 0.174001 8.944 0.430001 7.92C0.174001 6.832 0.0460005 5.552 0.0460005 4.08C0.0460005 2.544 0.174001 1.264 0.430001 0.24H23.47C23.726 1.264 23.854 2.544 23.854 4.08C23.854 5.552 23.726 6.832 23.47 7.92H8.11C8.366 8.944 8.494 10.224 8.494 11.76C8.494 13.232 8.366 14.512 8.11 15.6C8.366 16.624 8.494 17.904 8.494 19.44C8.494 20.912 8.366 22.192 8.11 23.28H23.47ZM46.5475 7.92C46.2915 6.832 46.1635 5.552 46.1635 4.08C46.1635 2.544 46.2915 1.264 46.5475 0.24H54.2275C54.4835 1.264 54.6115 2.544 54.6115 4.08C54.6115 5.552 54.4835 6.832 54.2275 7.92H46.5475ZM61.9075 46.32C62.1635 47.344 62.2915 48.624 62.2915 50.16C62.2915 51.632 62.1635 52.912 61.9075 54H38.8675C38.6115 52.912 38.4835 51.632 38.4835 50.16C38.4835 48.624 38.6115 47.344 38.8675 46.32H46.5475C46.2915 45.232 46.1635 43.952 46.1635 42.48C46.1635 40.944 46.2915 39.664 46.5475 38.64C46.2915 37.552 46.1635 36.272 46.1635 34.8C46.1635 33.264 46.2915 31.984 46.5475 30.96C46.2915 29.872 46.1635 28.592 46.1635 27.12C46.1635 25.584 46.2915 24.304 46.5475 23.28H40.7875C40.5315 22.192 40.4035 20.912 40.4035 19.44C40.4035 17.904 40.5315 16.624 40.7875 15.6H54.2275C54.4835 16.624 54.6115 17.904 54.6115 19.44C54.6115 20.912 54.4835 22.192 54.2275 23.28C54.4835 24.304 54.6115 25.584 54.6115 27.12C54.6115 28.592 54.4835 29.872 54.2275 30.96C54.4835 31.984 54.6115 33.264 54.6115 34.8C54.6115 36.272 54.4835 37.552 54.2275 38.64C54.4835 39.664 54.6115 40.944 54.6115 42.48C54.6115 43.952 54.4835 45.232 54.2275 46.32H61.9075ZM80.569 19.44C80.569 20.912 80.441 22.192 80.185 23.28H84.025C84.281 24.304 84.409 25.584 84.409 27.12C84.409 28.592 84.281 29.872 84.025 30.96H81.145C81.401 31.984 81.529 33.264 81.529 34.8C81.529 36.272 81.401 37.552 81.145 38.64C81.401 39.664 81.529 40.944 81.529 42.48C81.529 43.952 81.401 45.232 81.145 46.32C81.401 47.344 81.529 48.624 81.529 50.16C81.529 51.632 81.401 52.912 81.145 54H73.465C73.209 52.912 73.081 51.632 73.081 50.16C73.081 48.624 73.209 47.344 73.465 46.32C73.209 45.232 73.081 43.952 73.081 42.48C73.081 40.944 73.209 39.664 73.465 38.64C73.209 37.552 73.081 36.272 73.081 34.8C73.081 33.264 73.209 31.984 73.465 30.96C73.209 29.872 73.081 28.592 73.081 27.12C73.081 25.584 73.209 24.304 73.465 23.28C73.209 22.192 73.081 20.912 73.081 19.44C73.081 17.904 73.209 16.624 73.465 15.6H80.185C80.441 16.624 80.569 17.904 80.569 19.44ZM104.185 30.96C104.441 31.984 104.569 33.264 104.569 34.8C104.569 36.272 104.441 37.552 104.185 38.64C104.441 39.664 104.569 40.944 104.569 42.48C104.569 43.952 104.441 45.232 104.185 46.32C104.441 47.344 104.569 48.624 104.569 50.16C104.569 51.632 104.441 52.912 104.185 54H96.505C96.249 52.912 96.121 51.632 96.121 50.16C96.121 48.624 96.249 47.344 96.505 46.32C96.249 45.232 96.121 43.952 96.121 42.48C96.121 40.944 96.249 39.664 96.505 38.64C96.249 37.552 96.121 36.272 96.121 34.8C96.121 33.264 96.249 31.984 96.505 30.96C96.249 29.872 96.121 28.592 96.121 27.12C96.121 25.584 96.249 24.304 96.505 23.28H84.025C83.769 22.192 83.641 20.912 83.641 19.44C83.641 17.904 83.769 16.624 84.025 15.6H99.385C99.641 16.624 99.769 17.904 99.769 19.44C99.769 20.912 99.641 22.192 99.385 23.28H104.185C104.441 24.304 104.569 25.584 104.569 27.12C104.569 28.592 104.441 29.872 104.185 30.96ZM142.623 7.92C142.879 8.944 143.007 10.224 143.007 11.76C143.007 13.232 142.879 14.512 142.623 15.6C142.879 16.624 143.007 17.904 143.007 19.44C143.007 20.912 142.879 22.192 142.623 23.28C142.879 24.304 143.007 25.584 143.007 27.12C143.007 28.592 142.879 29.872 142.623 30.96C142.879 31.984 143.007 33.264 143.007 34.8C143.007 36.272 142.879 37.552 142.623 38.64C142.879 39.664 143.007 40.944 143.007 42.48C143.007 43.952 142.879 45.232 142.623 46.32C142.879 47.344 143.007 48.624 143.007 50.16C143.007 51.632 142.879 52.912 142.623 54H134.943C134.687 52.912 134.559 51.632 134.559 50.16C134.559 48.624 134.687 47.344 134.943 46.32H132.062C131.807 45.232 131.679 43.952 131.679 42.48C131.679 40.944 131.807 39.664 132.062 38.64H134.943C134.687 37.552 134.559 36.272 134.559 34.8C134.559 33.264 134.687 31.984 134.943 30.96H132.062C131.807 29.872 131.679 28.592 131.679 27.12C131.679 25.584 131.807 24.304 132.062 23.28H134.943C134.687 22.192 134.559 20.912 134.559 19.44C134.559 17.904 134.687 16.624 134.943 15.6C134.687 14.512 134.559 13.232 134.559 11.76C134.559 10.224 134.687 8.944 134.943 7.92C134.687 6.832 134.559 5.552 134.559 4.08C134.559 2.544 134.687 1.264 134.943 0.24H142.623C142.879 1.264 143.007 2.544 143.007 4.08C143.007 5.552 142.879 6.832 142.623 7.92ZM130.527 19.44C130.527 20.912 130.399 22.192 130.143 23.28H120.543C120.799 24.304 120.927 25.584 120.927 27.12C120.927 28.592 120.799 29.872 120.543 30.96H117.663C117.919 31.984 118.047 33.264 118.047 34.8C118.047 36.272 117.919 37.552 117.663 38.64H120.543C120.799 39.664 120.927 40.944 120.927 42.48C120.927 43.952 120.799 45.232 120.543 46.32H130.143C130.399 47.344 130.527 48.624 130.527 50.16C130.527 51.632 130.399 52.912 130.143 54H119.583C119.327 52.912 119.199 51.632 119.199 50.16C119.199 48.624 119.327 47.344 119.583 46.32H114.783C114.526 45.232 114.398 43.952 114.398 42.48C114.398 40.944 114.526 39.664 114.783 38.64H111.903C111.647 37.552 111.519 36.272 111.519 34.8C111.519 33.264 111.647 31.984 111.903 30.96H114.783C114.526 29.872 114.398 28.592 114.398 27.12C114.398 25.584 114.526 24.304 114.783 23.28H119.583C119.327 22.192 119.199 20.912 119.199 19.44C119.199 17.904 119.327 16.624 119.583 15.6H130.143C130.399 16.624 130.527 17.904 130.527 19.44ZM181.444 42.48C181.444 43.952 181.316 45.232 181.06 46.32C181.316 47.344 181.444 48.624 181.444 50.16C181.444 51.632 181.316 52.912 181.06 54H173.38C173.124 52.912 172.996 51.632 172.996 50.16C172.996 48.624 173.124 47.344 173.38 46.32C173.124 45.232 172.996 43.952 172.996 42.48C172.996 40.944 173.124 39.664 173.38 38.64H158.02C158.276 39.664 158.404 40.944 158.404 42.48C158.404 43.952 158.276 45.232 158.02 46.32C158.276 47.344 158.404 48.624 158.404 50.16C158.404 51.632 158.276 52.912 158.02 54H150.34C150.084 52.912 149.956 51.632 149.956 50.16C149.956 48.624 150.084 47.344 150.34 46.32C150.084 45.232 149.956 43.952 149.956 42.48C149.956 40.944 150.084 39.664 150.34 38.64H153.22C152.964 37.552 152.836 36.272 152.836 34.8C152.836 33.264 152.964 31.984 153.22 30.96C152.964 29.872 152.836 28.592 152.836 27.12C152.836 25.584 152.964 24.304 153.22 23.28H155.14C154.884 22.192 154.756 20.912 154.756 19.44C154.756 17.904 154.884 16.624 155.14 15.6H158.02C157.764 14.512 157.636 13.232 157.636 11.76C157.636 10.224 157.764 8.944 158.02 7.92H159.94C159.684 6.832 159.556 5.552 159.556 4.08C159.556 2.544 159.684 1.264 159.94 0.24H171.46C171.716 1.264 171.844 2.544 171.844 4.08C171.844 5.552 171.716 6.832 171.46 7.92H173.38C173.636 8.944 173.764 10.224 173.764 11.76C173.764 13.232 173.636 14.512 173.38 15.6H176.26C176.516 16.624 176.644 17.904 176.644 19.44C176.644 20.912 176.516 22.192 176.26 23.28H178.18C178.436 24.304 178.564 25.584 178.564 27.12C178.564 28.592 178.436 29.872 178.18 30.96C178.436 31.984 178.564 33.264 178.564 34.8C178.564 36.272 178.436 37.552 178.18 38.64H181.06C181.316 39.664 181.444 40.944 181.444 42.48ZM170.5 30.96C170.244 29.872 170.116 28.592 170.116 27.12C170.116 25.584 170.244 24.304 170.5 23.28H168.58C168.324 22.192 168.196 20.912 168.196 19.44C168.196 17.904 168.324 16.624 168.58 15.6H162.82C163.076 16.624 163.204 17.904 163.204 19.44C163.204 20.912 163.076 22.192 162.82 23.28H160.9C161.156 24.304 161.284 25.584 161.284 27.12C161.284 28.592 161.156 29.872 160.9 30.96H170.5Z" fill="white"/>
<path d="M219.498 23.28C219.754 24.304 219.882 25.584 219.882 27.12C219.882 28.592 219.754 29.872 219.498 30.96C219.754 31.984 219.882 33.264 219.882 34.8C219.882 36.272 219.754 37.552 219.498 38.64H215.658C215.914 39.664 216.042 40.944 216.042 42.48C216.042 43.952 215.914 45.232 215.658 46.32H211.818C212.074 47.344 212.202 48.624 212.202 50.16C212.202 51.632 212.074 52.912 211.818 54H188.778C188.522 52.912 188.394 51.632 188.394 50.16C188.394 48.624 188.522 47.344 188.778 46.32C188.522 45.232 188.394 43.952 188.394 42.48C188.394 40.944 188.522 39.664 188.778 38.64C188.522 37.552 188.394 36.272 188.394 34.8C188.394 33.264 188.522 31.984 188.778 30.96C188.522 29.872 188.394 28.592 188.394 27.12C188.394 25.584 188.522 24.304 188.778 23.28C188.522 22.192 188.394 20.912 188.394 19.44C188.394 17.904 188.522 16.624 188.778 15.6C188.522 14.512 188.394 13.232 188.394 11.76C188.394 10.224 188.522 8.944 188.778 7.92C188.522 6.832 188.394 5.552 188.394 4.08C188.394 2.544 188.522 1.264 188.778 0.24H211.818C212.074 1.264 212.202 2.544 212.202 4.08C212.202 5.552 212.074 6.832 211.818 7.92H215.658C215.914 8.944 216.042 10.224 216.042 11.76C216.042 13.232 215.914 14.512 215.658 15.6H219.498C219.754 16.624 219.882 17.904 219.882 19.44C219.882 20.912 219.754 22.192 219.498 23.28ZM211.818 38.64C211.562 37.552 211.434 36.272 211.434 34.8C211.434 33.264 211.562 31.984 211.818 30.96C211.562 29.872 211.434 28.592 211.434 27.12C211.434 25.584 211.562 24.304 211.818 23.28C211.562 22.192 211.434 20.912 211.434 19.44C211.434 17.904 211.562 16.624 211.818 15.6H207.978C207.722 14.512 207.594 13.232 207.594 11.76C207.594 10.224 207.722 8.944 207.978 7.92H196.458C196.714 8.944 196.842 10.224 196.842 11.76C196.842 13.232 196.714 14.512 196.458 15.6C196.714 16.624 196.842 17.904 196.842 19.44C196.842 20.912 196.714 22.192 196.458 23.28C196.714 24.304 196.842 25.584 196.842 27.12C196.842 28.592 196.714 29.872 196.458 30.96C196.714 31.984 196.842 33.264 196.842 34.8C196.842 36.272 196.714 37.552 196.458 38.64C196.714 39.664 196.842 40.944 196.842 42.48C196.842 43.952 196.714 45.232 196.458 46.32H207.978C207.722 45.232 207.594 43.952 207.594 42.48C207.594 40.944 207.722 39.664 207.978 38.64H211.818ZM258.319 27.12C258.319 28.592 258.191 29.872 257.935 30.96C258.191 31.984 258.319 33.264 258.319 34.8C258.319 36.272 258.191 37.552 257.935 38.64H237.775C238.031 39.664 238.159 40.944 238.159 42.48C238.159 43.952 238.031 45.232 237.775 46.32H254.095C254.351 47.344 254.479 48.624 254.479 50.16C254.479 51.632 254.351 52.912 254.095 54H234.895C234.639 52.912 234.511 51.632 234.511 50.16C234.511 48.624 234.639 47.344 234.895 46.32H230.095C229.839 45.232 229.711 43.952 229.711 42.48C229.711 40.944 229.839 39.664 230.095 38.64H227.215C226.959 37.552 226.831 36.272 226.831 34.8C226.831 33.264 226.959 31.984 227.215 30.96H230.095C229.839 29.872 229.711 28.592 229.711 27.12C229.711 25.584 229.839 24.304 230.095 23.28H234.895C234.639 22.192 234.511 20.912 234.511 19.44C234.511 17.904 234.639 16.624 234.895 15.6H254.095C254.351 16.624 254.479 17.904 254.479 19.44C254.479 20.912 254.351 22.192 254.095 23.28H257.935C258.191 24.304 258.319 25.584 258.319 27.12ZM250.255 30.96C249.999 29.872 249.871 28.592 249.871 27.12C249.871 25.584 249.999 24.304 250.255 23.28H237.775C238.031 24.304 238.159 25.584 238.159 27.12C238.159 28.592 238.031 29.872 237.775 30.96H250.255ZM296.757 19.44C296.757 20.912 296.629 22.192 296.373 23.28H293.493C293.749 24.304 293.877 25.584 293.877 27.12C293.877 28.592 293.749 29.872 293.493 30.96H290.613C290.869 31.984 290.997 33.264 290.997 34.8C290.997 36.272 290.869 37.552 290.613 38.64H288.693C288.949 39.664 289.077 40.944 289.077 42.48C289.077 43.952 288.949 45.232 288.693 46.32H284.853C285.109 47.344 285.237 48.624 285.237 50.16C285.237 51.632 285.109 52.912 284.853 54H277.173C276.917 52.912 276.789 51.632 276.789 50.16C276.789 48.624 276.917 47.344 277.173 46.32H273.333C273.077 45.232 272.949 43.952 272.949 42.48C272.949 40.944 273.077 39.664 273.333 38.64H271.413C271.157 37.552 271.029 36.272 271.029 34.8C271.029 33.264 271.157 31.984 271.413 30.96H268.533C268.276 29.872 268.148 28.592 268.148 27.12C268.148 25.584 268.276 24.304 268.533 23.28H265.653C265.397 22.192 265.269 20.912 265.269 19.44C265.269 17.904 265.397 16.624 265.653 15.6H273.333C273.589 16.624 273.717 17.904 273.717 19.44C273.717 20.912 273.589 22.192 273.333 23.28H276.213C276.469 24.304 276.597 25.584 276.597 27.12C276.597 28.592 276.469 29.872 276.213 30.96H279.093C279.349 31.984 279.477 33.264 279.477 34.8C279.477 36.272 279.349 37.552 279.093 38.64H282.933C282.677 37.552 282.549 36.272 282.549 34.8C282.549 33.264 282.677 31.984 282.933 30.96H285.812C285.557 29.872 285.429 28.592 285.429 27.12C285.429 25.584 285.557 24.304 285.812 23.28H288.693C288.437 22.192 288.309 20.912 288.309 19.44C288.309 17.904 288.437 16.624 288.693 15.6H296.373C296.629 16.624 296.757 17.904 296.757 19.44Z" fill="#D8C626"/>
</svg>
