<svg width="14" height="16" viewBox="0 0 14 16" fill="none" xmlns="http://www.w3.org/2000/svg">
<path d="M4.09698 16C4.29142 16 4.43886 15.9936 4.53607 15.9808C4.65012 15.958 4.75295 15.8976 4.82772 15.8096C4.92494 15.7088 4.97354 15.5632 4.97354 15.3712L4.96706 14.4801C4.9622 13.9121 4.96058 13.4609 4.96058 13.1297L4.65597 13.1825C4.41222 13.2204 4.16538 13.2354 3.91876 13.2273C3.6089 13.2219 3.30001 13.1914 2.99521 13.1361C2.67174 13.0766 2.36734 12.9416 2.10731 12.7425C1.83472 12.5389 1.63129 12.2582 1.52401 11.9378L1.39115 11.6354C1.2794 11.3973 1.13905 11.1733 0.973126 10.9682C0.824156 10.758 0.625642 10.5867 0.394695 10.469L0.30234 10.405C0.238741 10.3588 0.181069 10.3051 0.130592 10.2451C0.0816039 10.1905 0.0411869 10.129 0.0106935 10.0627C-0.0152307 10.0019 0.00583262 9.95066 0.0755037 9.91227C0.197786 9.86374 0.329694 9.84349 0.461125 9.85307L0.726847 9.89307C0.905076 9.92667 1.12381 10.0323 1.38467 10.2067C1.64391 10.3826 1.85941 10.6082 2.02791 10.8882C2.23207 11.2466 2.47673 11.5202 2.76513 11.7074C3.0197 11.8847 3.32214 11.9827 3.63359 11.989C3.92524 11.989 4.178 11.9682 4.39025 11.925C4.59685 11.8827 4.79757 11.8161 4.98813 11.7266C5.06752 11.1426 5.28301 10.6914 5.63623 10.3778C5.17767 10.3331 4.72323 10.2539 4.27683 10.1411C3.84097 10.0224 3.42185 9.85044 3.02923 9.62908C2.61806 9.40881 2.25473 9.11091 1.95986 8.75232C1.67794 8.40193 1.44624 7.94435 1.26315 7.37638C1.07225 6.73833 0.981011 6.07527 0.99257 5.41006C0.99257 4.35411 1.34255 3.45335 2.04088 2.71098C1.71358 1.91582 1.74437 1.02466 2.13323 0.0374985C2.39085 -0.042498 2.77161 0.0166988 3.27551 0.21349C3.77941 0.410282 4.15045 0.578274 4.38377 0.719068C4.61871 0.858262 4.80504 0.975057 4.94762 1.07105C5.77748 0.843475 6.63502 0.72935 7.49628 0.731868C8.37122 0.731868 9.22186 0.843863 10.045 1.07265L10.5472 0.757467C10.894 0.549476 11.3007 0.355884 11.7689 0.181492C12.2388 0.00549936 12.5969 -0.042498 12.8448 0.0374985C13.2433 1.02466 13.279 1.91582 12.9501 2.70938C13.65 3.45335 14 4.35251 14 5.41006C14 6.15243 13.9093 6.81 13.7278 7.38278C13.5463 7.95555 13.3114 8.41313 13.0246 8.75872C12.7249 9.11378 12.3599 9.40964 11.9488 9.63068C11.5562 9.8521 11.137 10.0241 10.7012 10.1427C10.2542 10.2551 9.7992 10.3337 9.34014 10.3778C9.80029 10.7698 10.0304 11.3906 10.0304 12.2386V15.3696C10.0304 15.5184 10.0531 15.6384 10.0968 15.7312C10.1174 15.7754 10.1468 15.8151 10.1833 15.8478C10.2197 15.8805 10.2625 15.9056 10.3091 15.9216C10.4063 15.9552 10.4938 15.9776 10.5683 15.9856C10.6444 15.9952 10.7514 16 10.8923 16H7.70692H4.0986H4.09698Z" fill="#292932"/>
</svg>
